<?xml version="1.0" standalone="no"?>
<!DOCTYPE svg PUBLIC "-//W3C//DTD SVG 20010904//EN"
 "http://www.w3.org/TR/2001/REC-SVG-20010904/DTD/svg10.dtd">
<svg version="1.0" xmlns="http://www.w3.org/2000/svg"
 width="228.000000pt" height="228.000000pt" viewBox="0 0 228.000000 228.000000"
 preserveAspectRatio="xMidYMid meet">

<g transform="translate(0.000000,228.000000) scale(0.100000,-0.100000)"
fill="#000000" stroke="none">
<path d="M1015 2130 c-263 -26 -513 -137 -696 -308 -105 -99 -193 -225 -238
-340 -40 -104 -77 -312 -55 -312 3 0 24 15 47 34 164 133 396 180 627 126 109
-26 233 -69 370 -130 454 -200 653 -251 843 -219 113 20 192 51 285 113 85 56
85 55 48 230 -45 212 -149 388 -313 528 -239 206 -585 310 -918 278z"/>
<path d="M380 1300 c-92 -9 -204 -52 -293 -110 -61 -40 -71 -52 -70 -86 4
-218 103 -451 260 -610 205 -209 490 -331 815 -350 81 -5 130 -2 233 16 282
47 478 142 655 318 132 131 208 258 250 419 20 76 36 213 26 213 -3 0 -29 -18
-58 -40 -71 -55 -178 -106 -263 -126 -54 -12 -99 -15 -195 -11 -174 8 -257 32
-570 165 -293 124 -341 142 -456 172 -126 33 -226 42 -334 30z"/>
</g>
</svg>
